# xmcd
#
# Track frame offsets: 
#        150
#        98064
#        121187
#        140965
#        173339
#        190327
#        244332
#
# Disc length: 3729 seconds
#
# Revision: 1
# Processed by: cddbd v1.5.2PL0 Copyright (c) Steve Scherf et al.
# Submitted via: ExactAudioCopy v0.95a4
#
DISCID=5c0e8f07
DTITLE=Tangerine Dream - Live at The Guild Hall, Preston, UK, November
DTITLE=5th [CD2]
DYEAR=1980
DGENRE=New Age
TTITLE0=Silver Scale
TTITLE1=Horns of Doom
TTITLE2=Phase Change
TTITLE3=Diamond Duster
TTITLE4=Diamond Diary
TTITLE5=Chronzon
TTITLE6=The Football Museum
EXTD=YEAR: 1980
EXTT0=
EXTT1=
EXTT2=
EXTT3=
EXTT4=
EXTT5=
EXTT6=
PLAYORDER=
